<?xml version="1.0" encoding="utf-8"?>
<!-- Generator: Adobe Illustrator 18.0.0, SVG Export Plug-In . SVG Version: 6.00 Build 0)  -->
<!DOCTYPE svg PUBLIC "-//W3C//DTD SVG 1.1//EN" "http://www.w3.org/Graphics/SVG/1.1/DTD/svg11.dtd">
<svg version="1.1" id="Layer_1" xmlns="http://www.w3.org/2000/svg" xmlns:xlink="http://www.w3.org/1999/xlink" x="0px" y="0px"
	 viewBox="12.9 2.6 73.9 74.5" enable-background="new 12.9 2.6 73.9 74.5" xml:space="preserve">
<g>
	<g>
		<path d="M24.5,18.7c-0.6,0-1.2-0.2-1.6-0.6c-1-0.9-1-2.4-0.2-3.4c2.3-2.6,5-4.7,7.9-6.6c1.1-0.7,2.6-0.3,3.3,0.8
			c0.7,1.1,0.3,2.6-0.8,3.3c-2.6,1.6-4.9,3.4-6.9,5.7C25.8,18.4,25.1,18.7,24.5,18.7z"/>
	</g>
	<g>
		<path d="M15.8,47.9c-1.1,0-2.2-0.8-2.4-2c-0.3-2-0.5-4.1-0.5-6.1c0-4.6,0.8-9,2.4-13.2c0.5-1.2,1.8-1.8,3.1-1.4
			c1.2,0.5,1.8,1.8,1.4,3.1c-1.4,3.7-2.1,7.5-2.1,11.5c0,1.8,0.2,3.6,0.4,5.4c0.2,1.3-0.6,2.6-2,2.8C16,47.8,15.9,47.9,15.8,47.9z"
			/>
	</g>
	<g>
		<path d="M83.2,52.2c-0.2,0-0.5,0-0.7-0.1c-1.3-0.4-2-1.7-1.6-3c0.5-1.7,0.9-3.4,1.1-5.1c0.2-1.3,1.4-2.2,2.7-2.1
			c1.3,0.2,2.2,1.4,2.1,2.7c-0.2,2-0.6,4-1.3,5.9C85.2,51.5,84.2,52.2,83.2,52.2z"/>
	</g>
	<g>
		<path d="M84.4,37.7c-1.2,0-2.2-0.9-2.4-2.1c-2.1-16-15.8-28.1-32-28.1c-2.6,0-5,0.3-7.5,0.9c-1.3,0.2-2.6-0.6-2.9-1.8
			c-0.3-1.3,0.5-2.6,1.8-2.9c2.8-0.6,5.7-1,8.6-1c18.6,0,34.4,13.8,36.8,32.2c0.2,1.3-0.7,2.5-2.1,2.7
			C84.6,37.7,84.5,37.7,84.4,37.7z"/>
	</g>
	<g>
		<path d="M69.8,71.1c-0.4,0-0.8-0.1-1.2-0.3c-1.1-0.6-1.5-2.2-0.9-3.3c0.1-0.1,5.9-10.5,5.9-27.8c0-4.3-1.1-8.5-3.3-12.2
			c-0.6-1.1-0.3-2.6,0.9-3.3c1.1-0.6,2.6-0.3,3.3,0.9c2.6,4.4,3.9,9.4,3.9,14.6c0,18.6-6.3,29.7-6.6,30.2
			C71.5,70.7,70.7,71.1,69.8,71.1z"/>
	</g>
	<g>
		<path d="M23.8,42.2c-1.4,0-2.4-1-2.4-2.4c0-16,12.6-28.6,28.6-28.6c5,0,10.1,1.3,14.4,3.8c1.1,0.6,1.5,2.2,0.9,3.3
			c-0.6,1.1-2.2,1.5-3.3,0.9c-3.6-2.1-7.8-3.2-12-3.2c-13.4,0-23.8,10.4-23.8,23.8C26.2,41.1,25.1,42.2,23.8,42.2z"/>
	</g>
	<g>
		<path d="M21.1,61.4c-0.4,0-0.9-0.1-1.3-0.4c-1.1-0.7-1.4-2.2-0.8-3.3c0.1-0.2,1.3-2.5,1.9-8.8c0.2-1.3,1.3-2.2,2.6-2.2
			c1.3,0.2,2.2,1.3,2.2,2.6C25,57,23.4,59.7,23.1,60.2C22.6,61,21.9,61.4,21.1,61.4z"/>
	</g>
	<g>
		<path d="M59,75.7c-0.5,0-1-0.2-1.4-0.5c-1-0.8-1.3-2.2-0.6-3.4c0.1-0.1,7.1-10.2,8-28.3c0.1-1.4,1.2-2.4,2.5-2.3
			c1.4,0.1,2.3,1.2,2.3,2.5c-0.9,19.8-8.6,30.6-8.9,31C60.4,75.4,59.7,75.7,59,75.7z"/>
	</g>
	<g>
		<path d="M66.8,37.3c-1,0-2-0.7-2.3-1.8c-1.8-6.5-7.7-10.9-14.6-10.9c-4.3,0-8.2,1.6-11,4.6c-0.9,1-2.4,1-3.4,0.1
			c-1-0.9-1-2.4-0.1-3.4c3.8-3.9,8.9-6.1,14.5-6.1c9,0,16.7,5.8,19.2,14.4c0.4,1.3-0.4,2.6-1.7,3C67.3,37.3,67,37.3,66.8,37.3z"/>
	</g>
	<g>
		<path d="M27.4,68.4c-0.4,0-0.8-0.1-1.2-0.3c-1.1-0.6-1.5-2.2-0.9-3.3c0.1-0.1,4.8-8.6,4.8-25c0-1.4,0.2-2.8,0.4-4.2
			c0.2-1.3,1.5-2.2,2.8-1.9c1.3,0.2,2.2,1.5,1.9,2.8c-0.2,1-0.3,2.2-0.3,3.2c0,17.8-5.2,27.1-5.4,27.4C29,68,28.2,68.4,27.4,68.4z"
			/>
	</g>
	<g>
		<path d="M49.6,77.1c-0.5,0-0.9-0.2-1.4-0.4c-1.1-0.7-1.4-2.2-0.6-3.4c0.1-0.1,5-7.7,7.5-19.6c0.2-1.3,1.5-2.2,2.9-1.8
			c1.3,0.2,2.2,1.5,1.8,2.9c-2.7,12.9-8,20.9-8.2,21.2C51.2,76.7,50.4,77.1,49.6,77.1z"/>
	</g>
	<g>
		<path d="M33.8,73.1c-0.5,0-1-0.2-1.4-0.5c-1-0.8-1.3-2.2-0.6-3.4c0.1-0.2,6.8-9.8,6.8-29.5c0-6.4,5-11.4,11.4-11.4
			s11.4,5.1,11.4,11.4c0,2.4-0.2,4.9-0.4,7.4c-0.2,1.3-1.4,2.2-2.6,2.2c-1.3-0.2-2.2-1.3-2.2-2.6c0.2-2.2,0.3-4.6,0.3-6.9
			c0-3.6-3-6.6-6.6-6.6c-3.7,0-6.6,2.9-6.6,6.6c0,21.5-7.4,31.9-7.7,32.3C35.2,72.7,34.5,73.1,33.8,73.1z"/>
	</g>
	<g>
		<path d="M41.4,75.8c-0.5,0-0.9-0.2-1.3-0.4c-1.1-0.7-1.4-2.2-0.7-3.3c0,0,0.9-1.4,2-3.8c0.6-1.2,2-1.7,3.2-1.1s1.7,2,1.1,3.2
			c-1.3,2.8-2.3,4.3-2.3,4.4C43,75.4,42.2,75.8,41.4,75.8z"/>
	</g>
	<g>
		<path d="M46.7,64c-0.4,0-0.7-0.1-1.1-0.2c-1.2-0.6-1.7-2.1-1-3.2c0-0.1,3.2-6.6,3.2-20.8c0-1.4,1-2.4,2.4-2.4s2.4,1,2.4,2.4
			c0,15.4-3.6,22.6-3.8,23C48.4,63.5,47.6,64,46.7,64z"/>
	</g>
</g>
</svg>
